<svg width="150" height="150" viewBox="0 0 150 150" fill="none" xmlns="http://www.w3.org/2000/svg">
<rect width="150" height="150" fill="none"/>
<path d="M58.0558 112.163C58.8906 114.903 57.8825 118.387 54.6208 121.951C51.4028 125.467 46.2851 128.679 39.9947 130.595C33.7044 132.512 27.6652 132.699 23.0332 131.574C18.3384 130.434 15.5594 128.104 14.7246 125.364C13.8898 122.623 14.8979 119.14 18.1596 115.576C21.3776 112.06 26.4953 108.848 32.7856 106.931C39.076 105.015 45.1152 104.828 49.7472 105.953C54.442 107.093 57.221 109.423 58.0558 112.163Z" fill="black" stroke="black" stroke-width="5"/>
<path d="M132.056 112.163C132.891 114.903 131.883 118.387 128.621 121.951C125.403 125.467 120.285 128.679 113.995 130.595C107.704 132.512 101.665 132.699 97.0332 131.574C92.3384 130.434 89.5594 128.104 88.7246 125.364C87.8898 122.623 88.8979 119.14 92.1596 115.576C95.3776 112.06 100.495 108.848 106.786 106.931C113.076 105.015 119.115 104.828 123.747 105.953C128.442 107.093 131.221 109.423 132.056 112.163Z" fill="black" stroke="black" stroke-width="5"/>
<rect x="57" y="17" width="3" height="95" fill="black"/>
<rect x="131" y="17" width="3" height="95" fill="black"/>
<rect x="57" y="17" width="76" height="7" fill="black"/>
</svg>
