<svg width="150" height="150" viewBox="0 0 150 150" fill="none" xmlns="http://www.w3.org/2000/svg">
<rect width="150" height="150" fill="none"/>
<rect width="150" height="150" fill="none"/>
<path d="M112.818 104C113.38 105.915 112.729 108.443 110.362 111.128C108.029 113.775 104.286 116.224 99.6496 117.69C95.0135 119.157 90.5909 119.29 87.2329 118.443C83.8259 117.584 81.9277 115.862 81.3656 113.947C80.8036 112.032 81.4549 109.504 83.8219 106.819C86.1548 104.172 89.8976 101.722 94.5337 100.256C99.1699 98.7899 103.593 98.657 106.95 99.5036C110.357 100.363 112.256 102.084 112.818 104Z" fill="white" stroke="white" stroke-width="5"/>
<rect x="113" y="28" width="2" height="76" fill="white"/>
<path d="M49.0976 103.87C49.6596 105.785 49.0084 108.313 46.6414 110.998C44.3084 113.645 40.5657 116.094 35.9295 117.561C31.2933 119.027 26.8707 119.16 23.5128 118.313C20.1058 117.454 18.2075 115.733 17.6455 113.817C17.0834 111.902 17.7347 109.374 20.1017 106.689C22.4346 104.042 26.1774 101.593 30.8136 100.126C35.4498 98.66 39.8724 98.5271 43.2303 99.3738C46.6373 100.233 48.5355 101.954 49.0976 103.87Z" fill="white" stroke="white" stroke-width="5"/>
<rect x="49" y="29" width="2" height="75" fill="white"/>
<rect x="49.4595" y="35.4819" width="30.4139" height="6.45855" fill="white"/>
<rect x="49" y="24" width="66" height="6" fill="white"/>
<ellipse cx="125.973" cy="106.885" rx="6.56664" ry="6.81736" fill="white"/>
<path d="M58.5685 111.178C59.4606 114.106 58.3754 117.8 54.9427 121.55C51.5537 125.254 46.1711 128.63 39.5625 130.643C32.9538 132.656 26.6032 132.855 21.7252 131.67C16.7842 130.47 13.8243 128.009 12.9322 125.081C12.0401 122.152 13.1252 118.459 16.5579 114.708C19.947 111.005 25.3295 107.629 31.9382 105.616C38.5468 103.603 44.8974 103.404 49.7755 104.589C54.7164 105.789 57.6764 108.25 58.5685 111.178Z" fill="black" stroke="black" stroke-width="5"/>
<path d="M132.068 111.178C132.96 114.106 131.875 117.8 128.442 121.55C125.053 125.254 119.67 128.63 113.062 130.643C106.453 132.656 100.103 132.855 95.2245 131.67C90.2836 130.47 87.3237 128.009 86.4316 125.081C85.5395 122.152 86.6246 118.459 90.0573 114.708C93.4464 111.005 98.8289 107.629 105.438 105.616C112.046 103.603 118.397 103.404 123.275 104.589C128.216 105.789 131.176 108.25 132.068 111.178Z" fill="black" stroke="black" stroke-width="5"/>
<rect x="59" y="24" width="2" height="91" fill="black"/>
<rect x="133" y="24" width="2" height="91" fill="black"/>
<rect x="59" y="18" width="76" height="6" fill="black"/>
</svg>
