<svg width="150" height="150" viewBox="0 0 150 150" fill="none" xmlns="http://www.w3.org/2000/svg">
<rect width="150" height="150" fill="none" />
<path d="M41.0624 104.018C41.6008 105.785 40.9914 108.185 38.614 110.783C36.2802 113.333 32.5324 115.696 27.8878 117.111C23.2432 118.526 18.8142 118.654 15.455 117.838C12.033 117.007 10.1894 115.355 9.6511 113.587C9.11276 111.82 9.7221 109.421 12.0995 106.823C14.4333 104.273 18.1811 101.909 22.8257 100.495C27.4703 99.0796 31.8993 98.9521 35.2585 99.7679C38.6805 100.599 40.5241 102.251 41.0624 104.018Z" fill="white" stroke="white" stroke-width="5"/>
<path d="M91.6438 104.018C92.1822 105.785 91.5728 108.185 89.1954 110.783C86.8617 113.333 83.1138 115.696 78.4692 117.111C73.8247 118.526 69.3956 118.654 66.0364 117.838C62.6145 117.007 60.7708 115.355 60.2325 113.587C59.6942 111.82 60.3035 109.421 62.6809 106.823C65.0147 104.273 68.7625 101.909 73.4071 100.495C78.0517 99.0796 82.4808 98.9521 85.8399 99.7679C89.2619 100.599 91.1055 102.251 91.6438 104.018Z" fill="white" stroke="white" stroke-width="5"/>
<path d="M139.536 104.018C140.075 105.785 139.465 108.185 137.088 110.783C134.754 113.333 131.006 115.696 126.362 117.111C121.717 118.526 117.288 118.654 113.929 117.838C110.507 117.007 108.663 115.355 108.125 113.587C107.587 111.82 108.196 109.421 110.573 106.823C112.907 104.273 116.655 101.909 121.3 100.495C125.944 99.0796 130.373 98.9521 133.732 99.7679C137.154 100.599 138.998 102.251 139.536 104.018Z" fill="white" stroke="white" stroke-width="5"/>
<rect x="91.0261" y="24" width="2.45144" height="78.446" fill="white"/>
<rect x="40.7715" y="24" width="2.45144" height="78.446" fill="white"/>
<rect x="138.829" y="24" width="2.45144" height="78.446" fill="white"/>
<rect x="40.7715" y="24" width="100.509" height="4.90288" fill="white"/>
<rect x="43" y="36.2573" width="50.2545" height="4.90288" fill="white"/>
</svg>
