<svg width="150" height="150" viewBox="0 0 150 150" fill="none" xmlns="http://www.w3.org/2000/svg">
<rect width="150" height="150" fill="none"/>
<path d="M27.4612 103.593C27.6437 104.191 27.5131 105.289 26.1974 106.727C24.9254 108.117 22.8223 109.462 20.1538 110.275C17.4853 111.087 14.9896 111.143 13.1587 110.699C11.265 110.239 10.5446 109.401 10.3622 108.802C10.1798 108.203 10.3104 107.105 11.626 105.668C12.898 104.278 15.0011 102.933 17.6696 102.12C20.3381 101.307 22.8338 101.251 24.6647 101.696C26.5584 102.156 27.2788 102.994 27.4612 103.593Z" fill="black" stroke="black" stroke-width="5"/>
<path d="M55.8702 103.593C56.0526 104.191 55.9221 105.289 54.6064 106.727C53.3344 108.117 51.2313 109.462 48.5628 110.275C45.8943 111.087 43.3986 111.143 41.5677 110.699C39.674 110.239 38.9536 109.401 38.7712 108.802C38.5888 108.203 38.7193 107.105 40.035 105.668C41.307 104.278 43.4101 102.933 46.0786 102.12C48.7471 101.307 51.2428 101.251 53.0737 101.696C54.9674 102.156 55.6878 102.994 55.8702 103.593Z" fill="black" stroke="black" stroke-width="5"/>
<path d="M84.2201 103.594C84.4025 104.192 84.2719 105.29 82.9562 106.728C81.6842 108.118 79.5812 109.463 76.9127 110.275C74.2442 111.088 71.7484 111.144 69.9175 110.7C68.0238 110.24 67.3034 109.401 67.121 108.803C66.9386 108.204 67.0692 107.106 68.3849 105.669C69.6569 104.279 71.76 102.934 74.4284 102.121C77.0969 101.308 79.5927 101.252 81.4236 101.697C83.3173 102.156 84.0377 102.995 84.2201 103.594Z" fill="black" stroke="black" stroke-width="5"/>
<path d="M111.724 103.594C111.906 104.192 111.775 105.29 110.46 106.728C109.188 108.118 107.085 109.463 104.416 110.275C101.748 111.088 99.2519 111.144 97.421 110.7C95.5272 110.24 94.8068 109.401 94.6244 108.803C94.442 108.204 94.5726 107.106 95.8883 105.669C97.1603 104.279 99.2634 102.934 101.932 102.121C104.6 101.308 107.096 101.252 108.927 101.697C110.821 102.156 111.541 102.995 111.724 103.594Z" fill="black" stroke="black" stroke-width="5"/>
<path d="M139.333 103.594C139.515 104.192 139.385 105.29 138.069 106.728C136.797 108.118 134.694 109.463 132.025 110.275C129.357 111.088 126.861 111.144 125.03 110.7C123.137 110.24 122.416 109.401 122.234 108.803C122.051 108.204 122.182 107.106 123.498 105.669C124.77 104.279 126.873 102.934 129.541 102.121C132.21 101.308 134.705 101.252 136.536 101.697C138.43 102.156 139.15 102.995 139.333 103.594Z" fill="black" stroke="black" stroke-width="5"/>
<rect x="28.2209" y="55.686" width="1.05814" height="46.558" fill="black"/>
<rect x="56.7906" y="55.686" width="1.05814" height="46.558" fill="black"/>
<rect x="85.3604" y="55.686" width="1.05814" height="46.558" fill="black"/>
<rect x="112.872" y="55.686" width="1.05814" height="46.558" fill="black"/>
<rect x="140.383" y="55.686" width="1.05814" height="46.558" fill="black"/>
<rect x="28.2209" y="55.686" width="113.221" height="4.23255" fill="black"/>
<rect x="28.2209" y="65.2095" width="113.221" height="2.11627" fill="black"/>
<text fill="black" xml:space="preserve" style="white-space: pre" font-family="Oxanium" font-size="24" font-weight="600" letter-spacing="0em"><tspan x="74.7149" y="47.96">5</tspan></text>
</svg>
