<svg width="150" height="150" viewBox="0 0 150 150" fill="none" xmlns="http://www.w3.org/2000/svg">
<rect width="150" height="150" fill="none"/>
<path d="M48.5547 110.112C49.3097 112.685 48.3989 115.946 45.4564 119.284C42.5479 122.583 37.9135 125.606 32.2061 127.411C26.4987 129.216 21.0281 129.39 16.8417 128.334C12.6063 127.266 10.0992 125.087 9.3442 122.514C8.58921 119.941 9.49999 116.68 12.4426 113.342C15.351 110.043 19.9854 107.02 25.6928 105.215C31.4002 103.41 36.8708 103.237 41.0572 104.292C45.2926 105.36 47.7997 107.54 48.5547 110.112Z" fill="white" stroke="white" stroke-width="5"/>
<rect x="47" y="13" width="4" height="100" fill="white"/>
<path d="M130.738 109.874C131.493 112.447 130.582 115.708 127.64 119.046C124.731 122.345 120.097 125.368 114.389 127.173C108.682 128.978 103.211 129.151 99.025 128.096C94.7895 127.028 92.2824 124.848 91.5274 122.275C90.7724 119.703 91.6832 116.442 94.6258 113.104C97.5343 109.805 102.169 106.782 107.876 104.977C113.583 103.171 119.054 102.998 123.24 104.054C127.476 105.122 129.983 107.301 130.738 109.874Z" fill="white" stroke="white" stroke-width="5"/>
<rect x="128" y="19" width="3" height="94" fill="white"/>
<rect x="87" y="29.6108" width="44" height="9.34363" fill="white"/>
<rect x="47" y="13" width="84" height="9" fill="white"/>
<circle cx="62.5" cy="118.5" r="5.5" fill="white"/>
</svg>
