<svg width="150" height="150" viewBox="0 0 150 150" fill="none" xmlns="http://www.w3.org/2000/svg">
<rect width="150" height="150" fill="none"/>
<path d="M36.4971 100.655C36.84 101.781 36.4935 103.465 34.699 105.426C32.9482 107.339 30.1033 109.144 26.5437 110.228C22.984 111.313 19.6164 111.401 17.0963 110.789C14.5133 110.161 13.2864 108.956 12.9434 107.83C12.6005 106.705 12.947 105.02 14.7415 103.059C16.4924 101.146 19.3372 99.3418 22.8969 98.2573C26.4565 97.1729 29.8242 97.0847 32.3443 97.6967C34.9272 98.324 36.1542 99.5294 36.4971 100.655Z" fill="white" stroke="white" stroke-width="5"/>
<path d="M70.7275 100.655C71.0704 101.781 70.7239 103.465 68.9294 105.426C67.1786 107.339 64.3338 109.144 60.7741 110.228C57.2144 111.313 53.8468 111.401 51.3267 110.789C48.7437 110.161 47.5168 108.956 47.1739 107.83C46.8309 106.705 47.1774 105.02 48.9719 103.059C50.7228 101.146 53.5676 99.3418 57.1273 98.2573C60.6869 97.1729 64.0546 97.0847 66.5747 97.6967C69.1576 98.324 70.3846 99.5294 70.7275 100.655Z" fill="white" stroke="white" stroke-width="5"/>
<path d="M103.811 100.655C104.154 101.781 103.807 103.465 102.013 105.426C100.262 107.339 97.4173 109.144 93.8576 110.228C90.298 111.313 86.9303 111.401 84.4102 110.789C81.8273 110.161 80.6003 108.956 80.2574 107.83C79.9145 106.705 80.261 105.02 82.0555 103.059C83.8063 101.146 86.6512 99.3418 90.2108 98.2573C93.7705 97.1729 97.1381 97.0847 99.6582 97.6967C102.241 98.324 103.468 99.5294 103.811 100.655Z" fill="white" stroke="white" stroke-width="5"/>
<path d="M136.489 100.655C136.832 101.781 136.485 103.465 134.691 105.426C132.94 107.339 130.095 109.144 126.535 110.228C122.976 111.313 119.608 111.401 117.088 110.789C114.505 110.161 113.278 108.956 112.935 107.83C112.592 106.705 112.939 105.02 114.733 103.059C116.484 101.146 119.329 99.3418 122.889 98.2573C126.448 97.1729 129.816 97.0847 132.336 97.6967C134.919 98.324 136.146 99.5294 136.489 100.655Z" fill="white" stroke="white" stroke-width="5"/>
<rect x="37.2465" y="34" width="1.88687" height="66.9839" fill="white"/>
<rect x="71.2102" y="34" width="1.88687" height="66.9839" fill="white"/>
<rect x="104.23" y="34" width="1.88687" height="66.9839" fill="white"/>
<rect x="136.307" y="34" width="1.88687" height="67.9274" fill="white"/>
<rect x="37.3403" y="34" width="100.735" height="3.91204" fill="white"/>
<rect x="37.3403" y="41.5474" width="100.735" height="4.89006" fill="white"/>
</svg>
