<svg width="150" height="150" viewBox="0 0 150 150" fill="none" xmlns="http://www.w3.org/2000/svg">
<rect width="150" height="150" fill="none"/>
<path d="M40.2629 101.443C40.783 103.15 40.1982 105.483 37.8752 108.021C35.5959 110.512 31.9323 112.823 27.389 114.207C22.8457 115.591 18.5157 115.715 15.2348 114.918C11.8912 114.106 10.1051 112.496 9.58504 110.789C9.06495 109.081 9.64975 106.749 11.9728 104.21C14.2521 101.72 17.9157 99.4083 22.459 98.0242C27.0023 96.6401 31.3323 96.5163 34.6131 97.3131C37.9568 98.1251 39.7428 99.7356 40.2629 101.443Z" fill="white" stroke="white" stroke-width="5"/>
<path d="M87.3538 101.443C87.8739 103.15 87.2891 105.483 84.9661 108.021C82.6867 110.512 79.0232 112.823 74.4799 114.207C69.9365 115.591 65.6066 115.715 62.3257 114.918C58.9821 114.106 57.196 112.496 56.6759 110.789C56.1558 109.081 56.7406 106.749 59.0636 104.21C61.343 101.72 65.0065 99.4083 69.5499 98.0242C74.0932 96.6401 78.4232 96.5163 81.704 97.3131C85.0477 98.1251 86.8337 99.7356 87.3538 101.443Z" fill="white" stroke="white" stroke-width="5"/>
<path d="M135.186 101.443C135.706 103.15 135.121 105.483 132.798 108.021C130.519 110.512 126.855 112.823 122.312 114.207C117.768 115.591 113.438 115.715 110.158 114.918C106.814 114.106 105.028 112.496 104.508 110.789C103.988 109.081 104.572 106.749 106.895 104.21C109.175 101.72 112.838 99.4083 117.382 98.0242C121.925 96.6401 126.255 96.5163 129.536 97.3131C132.88 98.1251 134.666 99.7356 135.186 101.443Z" fill="white" stroke="white" stroke-width="5"/>
<rect x="28.1818" y="24" width="2.54545" height="77.6363" fill="white"/>
<rect x="86.7272" y="24" width="2.54545" height="77.6363" fill="white"/>
<rect x="135.091" y="24" width="2.54545" height="77.6363" fill="white"/>
<rect x="28.1818" y="24" width="109.454" height="5.0909" fill="white"/>
<rect x="29.2302" y="36.7271" width="16.8762" height="5.06287" fill="white"/>
<rect x="119.125" y="36.7271" width="16.8762" height="5.06287" fill="white"/>
</svg>
