<svg width="150" height="150" viewBox="0 0 150 150" fill="none" xmlns="http://www.w3.org/2000/svg">
<rect width="150" height="150" fill="none"/>
<ellipse cx="26.6587" cy="122.073" rx="19.1857" ry="11.3434" transform="rotate(-16.943 26.6587 122.073)" fill="white"/>
<ellipse cx="73.4466" cy="122.073" rx="19.1857" ry="11.3434" transform="rotate(-16.943 73.4466 122.073)" fill="white"/>
<ellipse cx="120.149" cy="122.074" rx="19.1857" ry="11.3434" transform="rotate(-16.943 120.149 122.074)" fill="white"/>
<rect x="135.806" y="40.1392" width="1.69616" height="75.1513" fill="white"/>
<rect x="88.8627" y="40.1392" width="1.69616" height="75.1513" fill="white"/>
<rect x="42.3156" y="40.1392" width="1.69616" height="75.1513" fill="white"/>
<rect x="42.319" y="36.2598" width="95.1356" height="4.456" fill="white"/>
<path d="M84.8848 28.896V27.336H91.8448C92.5328 27.336 92.8768 26.992 92.8768 26.304V23.784C92.8768 23.096 92.5328 22.752 91.8448 22.752H86.6608V20.088H91.8448C92.5328 20.088 92.8768 19.736 92.8768 19.032V17.136C92.8768 16.448 92.5328 16.104 91.8448 16.104H85.1248V14.544L86.5408 13.44H91.9168C94.5248 13.44 95.8288 14.744 95.8288 17.352V18.96C95.8288 19.6 95.6288 20.12 95.2288 20.52L94.3888 21.36L95.2288 22.2C95.6288 22.6 95.8288 23.12 95.8288 23.76V26.088C95.8288 28.696 94.5248 30 91.9168 30H86.3008L84.8848 28.896Z" fill="white"/>
</svg>
