<svg width="109" height="99" viewBox="0 0 109 99" fill="none" xmlns="http://www.w3.org/2000/svg">
<path d="M44.6983 73.5174C45.3893 75.9123 44.5062 78.9572 41.6129 82.0729C38.7583 85.1467 34.2252 87.9309 28.6554 89.5379C23.0857 91.145 17.7662 91.2036 13.7129 90.1229C9.60451 89.0274 7.23512 86.9209 6.54412 84.526C5.85311 82.1311 6.73615 79.0861 9.62949 75.9705C12.484 72.8966 17.0172 70.1125 22.5869 68.5054C28.1567 66.8984 33.4762 66.8398 37.5295 67.9205C41.6379 69.0159 44.0072 71.1225 44.6983 73.5174Z" fill="#2AC1DC" stroke="#2AC1DC" stroke-width="5"/>
<path d="M38.1208 14C38.1208 9.02944 42.1503 5 47.1208 5V5V74C47.1208 76.7614 44.8823 79 42.1208 79H38.1208V14Z" fill="#2AC1DC"/>
<path d="M44.1208 15H104.121V15C104.121 19.4183 100.539 23 96.1208 23H44.1208V15Z" fill="#2AC1DC"/>
<path d="M56.313 31H66.7427L77.7583 57.875H78.2271L89.2427 31H99.6724V71H91.4692V44.9648H91.1372L80.7856 70.8047H75.1997L64.8481 44.8672H64.5161V71H56.313V31Z" fill="#2AC1DC"/>
</svg>
