<svg width="150" height="150" viewBox="0 0 150 150" fill="none" xmlns="http://www.w3.org/2000/svg">
<rect width="150" height="150" fill="none"/>
<path d="M23.9026 89.6899C23.9582 89.8724 23.9982 90.5062 23.0608 91.5305C22.1671 92.507 20.65 93.4891 18.6856 94.0876C16.7212 94.686 14.9143 94.7165 13.6279 94.4041C12.2787 94.0765 11.9585 93.528 11.9029 93.3455C11.8473 93.1631 11.8073 92.5292 12.7447 91.505C13.6384 90.5284 15.1555 89.5464 17.1199 88.9479C19.0843 88.3495 20.8912 88.3189 22.1776 88.6313C23.5268 88.959 23.847 89.5075 23.9026 89.6899Z" fill="black" stroke="black" stroke-width="5"/>
<path d="M46.5028 89.6899C46.5584 89.8724 46.5983 90.5062 45.661 91.5305C44.7673 92.507 43.2502 93.4891 41.2858 94.0876C39.3214 94.686 37.5145 94.7165 36.2281 94.4041C34.8789 94.0765 34.5587 93.528 34.5031 93.3455C34.4475 93.1631 34.4075 92.5292 35.3449 91.505C36.2386 90.5284 37.7556 89.5464 39.72 88.9479C41.6844 88.3495 43.4914 88.3189 44.7778 88.6313C46.127 88.959 46.4472 89.5075 46.5028 89.6899Z" fill="black" stroke="black" stroke-width="5"/>
<path d="M69.869 89.6904C69.9246 89.8729 69.9646 90.5067 69.0272 91.531C68.1335 92.5075 66.6165 93.4896 64.6521 94.088C62.6877 94.6865 60.8807 94.717 59.5943 94.4046C58.2451 94.077 57.9249 93.5285 57.8693 93.346C57.8138 93.1636 57.7738 92.5297 58.7111 91.5055C59.6049 90.5289 61.1219 89.5469 63.0863 88.9484C65.0507 88.35 66.8577 88.3194 68.144 88.6318C69.4933 88.9595 69.8135 89.508 69.869 89.6904Z" fill="black" stroke="black" stroke-width="5"/>
<path d="M92.5862 89.6904C92.6418 89.8729 92.6818 90.5067 91.7444 91.531C90.8507 92.5075 89.3336 93.4896 87.3692 94.088C85.4048 94.6865 83.5979 94.717 82.3115 94.4046C80.9623 94.077 80.6421 93.5285 80.5865 93.346C80.5309 93.1636 80.4909 92.5297 81.4283 91.5055C82.322 90.5289 83.8391 89.5469 85.8035 88.9484C87.7679 88.35 89.5748 88.3194 90.8612 88.6318C92.2104 88.9595 92.5306 89.508 92.5862 89.6904Z" fill="black" stroke="black" stroke-width="5"/>
<path d="M115.385 89.6904C115.44 89.8729 115.48 90.5067 114.543 91.531C113.649 92.5075 112.132 93.4896 110.168 94.088C108.203 94.6865 106.396 94.717 105.11 94.4046C103.761 94.077 103.44 93.5285 103.385 93.346C103.329 93.1636 103.289 92.5297 104.227 91.5055C105.12 90.5289 106.637 89.5469 108.602 88.9484C110.566 88.35 112.373 88.3194 113.66 88.6318C115.009 88.9595 115.329 89.508 115.385 89.6904Z" fill="black" stroke="black" stroke-width="5"/>
<path d="M137.894 89.6904C137.95 89.8729 137.99 90.5067 137.053 91.531C136.159 92.5075 134.642 93.4896 132.677 94.088C130.713 94.6865 128.906 94.717 127.62 94.4046C126.27 94.077 125.95 93.5285 125.895 93.346C125.839 93.1636 125.799 92.5297 126.736 91.5055C127.63 90.5289 129.147 89.5469 131.112 88.9484C133.076 88.35 134.883 88.3194 136.169 88.6318C137.519 88.9595 137.839 89.508 137.894 89.6904Z" fill="black" stroke="black" stroke-width="5"/>
<rect x="25" y="57" width="1" height="32" fill="black"/>
<rect x="48" y="60" width="1" height="29" fill="black"/>
<rect x="71" y="60" width="1" height="29" fill="black"/>
<rect x="94" y="60" width="1" height="29" fill="black"/>
<rect x="117" y="57" width="1" height="32" fill="black"/>
<rect x="139" y="57" width="1" height="32" fill="black"/>
<rect x="25.331" y="57.8135" width="23.3663" height="1.91527" fill="black"/>
<rect x="25.6038" y="57.2148" width="113.703" height="3.17445" fill="black"/>
<rect x="25.6038" y="62.6978" width="113.703" height="1.44293" fill="black"/>
<text fill="black" xml:space="preserve" style="white-space: pre" font-family="Oxanium" font-size="24" font-weight="600" letter-spacing="0em"><tspan x="73.5625" y="53.96">6</tspan></text>
</svg>
